<?xml version="1.0" encoding="UTF-8" standalone="no"?>
<svg width="337px" height="87px" viewBox="0 0 337 87" version="1.1" xmlns="http://www.w3.org/2000/svg" xmlns:xlink="http://www.w3.org/1999/xlink" xmlns:sketch="http://www.bohemiancoding.com/sketch/ns">
    <title>short_hook</title>
    <description>Created with Sketch (http://www.bohemiancoding.com/sketch)</description>
    <defs></defs>
    <g id="Page-1" stroke="none" stroke-width="1" fill="none" fill-rule="evenodd" sketch:type="MSPage">
        <path d="M200.338049,23.1013658 C198.044865,30.2023236 191.378448,35.3370087 183.511925,35.3370087 L18.6776744,35.3370087 C8.90932871,35.3370087 1,27.4258092 1,17.6668502 C1,7.90574538 8.91456441,-0.00330833 18.6776744,-0.00330833 L183.511925,-0.00330833 C191.466542,-0.00330833 198.188396,5.24282009 200.410309,12.460811 L318.33141,14.5910587 L318.33141,20.9310587 L200.338049,23.1013658 Z M18,29 C24.6274173,29 30,23.6274173 30,17 C30,10.3725827 24.6274173,5 18,5 C11.3725827,5 6,10.3725827 6,17 C6,23.6274173 11.3725827,29 18,29 Z M318.33141,20.9310587 C328.33141,20.9310587 336.33141,8.29105867 336.33141,8.29105867 L328.23141,8.29105867 C328.23141,8.29105867 323.23141,14.5910587 318.33141,14.5910587 L318.33141,20.9310587 Z" id="rect2985-6-3-4-5-4-2" stroke="#000000" stroke-width="0.66000003" fill="#000000" sketch:type="MSShapeGroup"></path>
        <path d="M317.373854,66.2970423 L200.407195,64.4507069 C198.182122,57.2379247 191.46283,51.9966917 183.511925,51.9966917 L18.6776744,51.9966917 C8.91456441,51.9966917 1,59.9057454 1,69.6668502 C1,79.4258092 8.90932871,87.3370087 18.6776744,87.3370087 L183.511925,87.3370087 C191.374709,87.3370087 198.038529,82.2072029 200.334776,75.1114884 L200.334776,75.1114884 L336,72.9310587 L336,66.5910587 L333.633252,66.5536992 L334.99974,66.531 L325.99987,54 L317.373854,66.2970423 Z M18,81 C24.6274173,81 30,75.6274173 30,69 C30,62.3725827 24.6274173,57 18,57 C11.3725827,57 6,62.3725827 6,69 C6,75.6274173 11.3725827,81 18,81 Z" id="rect2985-6-3-4-5-4-2" stroke="#000000" stroke-width="0.66000003" fill="#000000" sketch:type="MSShapeGroup"></path>
    </g>
</svg>