<?xml version="1.0" encoding="UTF-8" standalone="no"?>
<svg width="337px" height="37px" viewBox="0 0 337 37" version="1.1" xmlns="http://www.w3.org/2000/svg" xmlns:xlink="http://www.w3.org/1999/xlink" xmlns:sketch="http://www.bohemiancoding.com/sketch/ns">
    <title>short_hook</title>
    <description>Created with Sketch (http://www.bohemiancoding.com/sketch)</description>
    <defs></defs>
    <g id="Page-1" stroke="none" stroke-width="1" fill="none" fill-rule="evenodd" sketch:type="MSPage">
        <path d="M200.338049,24.1013658 C198.044865,31.2023236 191.378448,36.3370087 183.511925,36.3370087 L18.6776744,36.3370087 C8.90932871,36.3370087 1,28.4258092 1,18.6668502 C1,8.90574538 8.91456441,0.99669167 18.6776744,0.99669167 L183.511925,0.99669167 C191.466542,0.99669167 198.188396,6.24282009 200.410309,13.460811 L318.33141,15.5910587 L318.33141,21.9310587 L200.338049,24.1013658 Z M18,30 C24.6274173,30 30,24.6274173 30,18 C30,11.3725827 24.6274173,6 18,6 C11.3725827,6 6,11.3725827 6,18 C6,24.6274173 11.3725827,30 18,30 Z M318.33141,21.9310587 C328.33141,21.9310587 336.33141,9.29105867 336.33141,9.29105867 L328.23141,9.29105867 C328.23141,9.29105867 323.23141,15.5910587 318.33141,15.5910587 L318.33141,21.9310587 Z" id="rect2985-6-3-4-5-4-2" stroke="#000000" stroke-width="0.66000003" fill="#000000" sketch:type="MSShapeGroup"></path>
    </g>
</svg>